<svg xmlns="http://www.w3.org/2000/svg" width="6.687" height="10.504" viewBox="0 0 6.687 10.504">
  <path id="Icon_payment-inr" data-name="Icon payment-inr" d="M20.828,20.54V21.3a.421.421,0,0,1-.052.183.251.251,0,0,1-.183.079H19.339a2.7,2.7,0,0,1-.967,1.724,3.66,3.66,0,0,1-2.067.836q1.254,1.333,3.448,4a.282.282,0,0,1,.026.261.255.255,0,0,1-.235.133H18.114c-.1,0-.166-.035-.183-.1q-2.769-3.238-3.733-4.257a.211.211,0,0,1-.052-.157v-.943a.419.419,0,0,1,.052-.183.255.255,0,0,1,.183-.052h.836a3.521,3.521,0,0,0,1.593-.34,1.406,1.406,0,0,0,.757-.914H14.38a.251.251,0,0,1-.183-.079.417.417,0,0,1-.052-.183V20.54a.213.213,0,0,1,.052-.157.251.251,0,0,1,.183-.079h3.082q-.449-.836-2.015-.836H14.376a.251.251,0,0,1-.183-.079.4.4,0,0,1-.052-.157v-.992a.419.419,0,0,1,.052-.183.255.255,0,0,1,.183-.052h6.217a.214.214,0,0,1,.157.052.251.251,0,0,1,.079.183V19q0,.133-.079.157a.226.226,0,0,1-.157.079h-1.75a2.385,2.385,0,0,1,.47,1.071h1.28a.252.252,0,0,1,.183.079.213.213,0,0,1,.053.157Z" transform="translate(-14.141 -18.005)" fill="#fff"/>
</svg>
